<svg width="163" height="36" viewBox="0 0 163 36" fill="none" xmlns="http://www.w3.org/2000/svg">
<path d="M0 4C0 1.79086 1.79086 0 4 0H159C161.209 0 163 1.79086 163 4V32C163 34.2091 161.209 36 159 36H4C1.79086 36 0 34.2091 0 32V4Z" fill="#3E7FE1"/>
<path d="M31 19H25V25H23V19H17V17H23V11H25V17H31V19Z" fill="#FAFAFA"/>
<path d="M45.2402 23V13.0469H48.6514C49.777 13.0469 50.6338 13.2725 51.2217 13.7236C51.8096 14.1748 52.1035 14.847 52.1035 15.7402C52.1035 16.196 51.9805 16.6061 51.7344 16.9707C51.4883 17.3353 51.1283 17.6178 50.6543 17.8184C51.1921 17.9642 51.6068 18.2399 51.8984 18.6455C52.1947 19.0465 52.3428 19.5296 52.3428 20.0947C52.3428 21.029 52.042 21.7467 51.4404 22.248C50.8434 22.7493 49.9867 23 48.8701 23H45.2402ZM46.9697 18.5088V21.6191H48.8906C49.4329 21.6191 49.8568 21.4847 50.1621 21.2158C50.4674 20.9469 50.6201 20.5732 50.6201 20.0947C50.6201 19.0602 50.0915 18.5316 49.0342 18.5088H46.9697ZM46.9697 17.2373H48.665C49.2028 17.2373 49.6221 17.1165 49.9229 16.875C50.2282 16.6289 50.3809 16.2826 50.3809 15.8359C50.3809 15.3438 50.2396 14.9883 49.957 14.7695C49.679 14.5508 49.2438 14.4414 48.6514 14.4414H46.9697V17.2373ZM55.6992 17.9551H57.3262C57.9323 17.9551 58.4609 18.0599 58.9121 18.2695C59.3633 18.4792 59.7051 18.7731 59.9375 19.1514C60.1745 19.5296 60.293 19.9694 60.293 20.4707C60.293 21.2318 60.0241 21.8424 59.4863 22.3027C58.9486 22.763 58.2331 22.9954 57.3398 23H54.0381V15.6035H55.6992V17.9551ZM63.1846 23H61.5234V15.6035H63.1846V23ZM55.6992 19.2881V21.6738H57.3193C57.7249 21.6738 58.0439 21.5736 58.2764 21.373C58.5133 21.168 58.6318 20.8786 58.6318 20.5049C58.6318 20.1312 58.5156 19.8372 58.2832 19.623C58.0553 19.4043 57.7454 19.2926 57.3535 19.2881H55.6992ZM68.6602 16.0137C69.5898 16.0137 70.335 16.3258 70.8955 16.9502C71.4561 17.57 71.7363 18.4131 71.7363 19.4795V19.5615C71.7363 20.6279 71.431 21.4915 70.8203 22.1523C70.2142 22.8132 69.3893 23.1436 68.3457 23.1436C67.3294 23.1436 66.5091 22.8063 65.8848 22.1318C65.2604 21.4574 64.9482 20.5368 64.9482 19.3701V18.8916C64.9482 17.2965 65.2308 16.0342 65.7959 15.1045C66.361 14.1748 67.2041 13.5938 68.3252 13.3613C68.9541 13.2337 69.3597 13.0993 69.542 12.958C69.7288 12.8122 69.8223 12.6162 69.8223 12.3701H71.1621C71.1621 12.8304 71.0869 13.2041 70.9365 13.4912C70.7861 13.7783 70.556 14.013 70.2461 14.1953C69.9362 14.373 69.403 14.5417 68.6465 14.7012C67.9538 14.847 67.4251 15.1068 67.0605 15.4805C66.7005 15.8542 66.459 16.3714 66.3359 17.0322C66.9967 16.3532 67.7715 16.0137 68.6602 16.0137ZM68.332 17.3467C67.7943 17.3467 67.3727 17.529 67.0674 17.8936C66.762 18.2536 66.6094 18.8096 66.6094 19.5615C66.6094 20.2725 66.7598 20.8262 67.0605 21.2227C67.3613 21.6191 67.7897 21.8174 68.3457 21.8174C68.8971 21.8174 69.3232 21.6191 69.624 21.2227C69.9294 20.8216 70.082 20.2201 70.082 19.418C70.082 18.7799 69.9294 18.2764 69.624 17.9072C69.3232 17.5335 68.8926 17.3467 68.332 17.3467ZM76.2959 23.1367C75.2432 23.1367 74.3887 22.8063 73.7324 22.1455C73.0807 21.4801 72.7549 20.596 72.7549 19.4932V19.2881C72.7549 18.5498 72.8962 17.8913 73.1787 17.3125C73.4658 16.7292 73.8669 16.2757 74.3818 15.9521C74.8968 15.6286 75.471 15.4668 76.1045 15.4668C77.1117 15.4668 77.8887 15.7881 78.4355 16.4307C78.987 17.0732 79.2627 17.9824 79.2627 19.1582V19.8281H74.4297C74.4798 20.4388 74.6826 20.9219 75.0381 21.2773C75.3981 21.6328 75.8493 21.8105 76.3916 21.8105C77.1527 21.8105 77.7725 21.5029 78.251 20.8877L79.1465 21.7422C78.8503 22.1842 78.4538 22.5283 77.957 22.7744C77.4648 23.016 76.9111 23.1367 76.2959 23.1367ZM76.0977 16.7998C75.6419 16.7998 75.2728 16.9593 74.9902 17.2783C74.7122 17.5973 74.5345 18.0417 74.457 18.6113H77.6221V18.4883C77.5856 17.9323 77.4375 17.513 77.1777 17.2305C76.918 16.9434 76.5579 16.7998 76.0977 16.7998ZM87.0352 19.377C87.0352 20.5208 86.7754 21.4346 86.2559 22.1182C85.7363 22.7972 85.0391 23.1367 84.1641 23.1367C83.3529 23.1367 82.7035 22.8701 82.2158 22.3369V25.8438H80.5547V15.6035H82.0859L82.1543 16.3555C82.6419 15.763 83.305 15.4668 84.1436 15.4668C85.0459 15.4668 85.7523 15.804 86.2627 16.4785C86.7777 17.1484 87.0352 18.0804 87.0352 19.2744V19.377ZM85.3809 19.2334C85.3809 18.4951 85.2327 17.9095 84.9365 17.4766C84.6449 17.0436 84.2256 16.8271 83.6787 16.8271C82.9997 16.8271 82.512 17.1074 82.2158 17.668V20.9492C82.5166 21.5234 83.0088 21.8105 83.6924 21.8105C84.221 21.8105 84.6335 21.5986 84.9297 21.1748C85.2305 20.7464 85.3809 20.0993 85.3809 19.2334ZM93.0645 15.6035H94.7188V23H93.0645V18.0645L90.166 23H88.5117V15.6035H90.166V20.5391L93.0645 15.6035ZM102.307 16.9229H99.9072V23H98.2461V16.9229H95.874V15.6035H102.307V16.9229ZM106.237 23.1367C105.185 23.1367 104.33 22.8063 103.674 22.1455C103.022 21.4801 102.696 20.596 102.696 19.4932V19.2881C102.696 18.5498 102.838 17.8913 103.12 17.3125C103.407 16.7292 103.808 16.2757 104.323 15.9521C104.838 15.6286 105.412 15.4668 106.046 15.4668C107.053 15.4668 107.83 15.7881 108.377 16.4307C108.928 17.0732 109.204 17.9824 109.204 19.1582V19.8281H104.371C104.421 20.4388 104.624 20.9219 104.979 21.2773C105.34 21.6328 105.791 21.8105 106.333 21.8105C107.094 21.8105 107.714 21.5029 108.192 20.8877L109.088 21.7422C108.792 22.1842 108.395 22.5283 107.898 22.7744C107.406 23.016 106.853 23.1367 106.237 23.1367ZM106.039 16.7998C105.583 16.7998 105.214 16.9593 104.932 17.2783C104.654 17.5973 104.476 18.0417 104.398 18.6113H107.563V18.4883C107.527 17.9323 107.379 17.513 107.119 17.2305C106.859 16.9434 106.499 16.7998 106.039 16.7998ZM113.709 19.4043C113.709 18.1966 113.946 17.2396 114.42 16.5332C114.898 15.8223 115.564 15.4668 116.416 15.4668C116.762 15.4668 117.077 15.5306 117.359 15.6582V12.5H119.014V15.6855C119.305 15.5397 119.647 15.4668 120.039 15.4668C120.887 15.4668 121.55 15.82 122.028 16.5264C122.511 17.2282 122.753 18.2354 122.753 19.5479C122.753 20.6553 122.511 21.5303 122.028 22.1729C121.545 22.8154 120.887 23.1367 120.053 23.1367C119.674 23.1367 119.328 23.0684 119.014 22.9316V25.8438H117.359V22.959C117.081 23.0775 116.762 23.1367 116.402 23.1367C115.605 23.1367 114.967 22.8428 114.488 22.2549C114.014 21.6624 113.757 20.849 113.716 19.8145L113.709 19.4043ZM121.092 19.4043C121.092 18.5749 120.96 17.9346 120.695 17.4834C120.431 17.0277 120.057 16.7998 119.574 16.7998C119.369 16.7998 119.182 16.8294 119.014 16.8887V21.7422C119.164 21.7878 119.355 21.8105 119.588 21.8105C120.59 21.8105 121.092 21.0085 121.092 19.4043ZM115.363 19.5479C115.363 20.2861 115.486 20.849 115.732 21.2363C115.979 21.6191 116.343 21.8105 116.826 21.8105C117.031 21.8105 117.209 21.7878 117.359 21.7422V16.8682C117.204 16.8226 117.031 16.7998 116.84 16.7998C116.366 16.7998 116.001 17.0208 115.746 17.4629C115.491 17.9004 115.363 18.5954 115.363 19.5479ZM128.604 23C128.532 22.8587 128.468 22.6286 128.413 22.3096C127.884 22.861 127.237 23.1367 126.472 23.1367C125.729 23.1367 125.123 22.9248 124.653 22.501C124.184 22.0771 123.949 21.5531 123.949 20.9287C123.949 20.1403 124.241 19.5365 124.824 19.1172C125.412 18.6934 126.251 18.4814 127.34 18.4814H128.358V17.9961C128.358 17.6133 128.251 17.3079 128.037 17.0801C127.823 16.8477 127.497 16.7314 127.06 16.7314C126.681 16.7314 126.371 16.8271 126.13 17.0186C125.888 17.2054 125.768 17.4447 125.768 17.7363H124.106C124.106 17.3307 124.241 16.9525 124.51 16.6016C124.779 16.2461 125.143 15.9681 125.604 15.7676C126.068 15.5671 126.586 15.4668 127.155 15.4668C128.021 15.4668 128.712 15.6855 129.227 16.123C129.742 16.556 130.006 17.1667 130.02 17.9551V21.291C130.02 21.9564 130.113 22.4873 130.3 22.8838V23H128.604ZM126.779 21.8037C127.107 21.8037 127.415 21.724 127.702 21.5645C127.994 21.4049 128.213 21.1908 128.358 20.9219V19.5273H127.463C126.848 19.5273 126.385 19.6344 126.075 19.8486C125.765 20.0628 125.61 20.3659 125.61 20.7578C125.61 21.0768 125.715 21.332 125.925 21.5234C126.139 21.7103 126.424 21.8037 126.779 21.8037ZM136.377 15.6035H138.031V23H136.377V18.0645L133.479 23H131.824V15.6035H133.479V20.5391L136.377 15.6035ZM137.156 12.7666C137.156 13.3408 136.956 13.8057 136.555 14.1611C136.154 14.5166 135.618 14.6943 134.948 14.6943C134.278 14.6943 133.743 14.5166 133.342 14.1611C132.941 13.8057 132.74 13.3408 132.74 12.7666H133.984C133.984 13.0674 134.069 13.3021 134.237 13.4707C134.41 13.6348 134.647 13.7168 134.948 13.7168C135.249 13.7168 135.484 13.6348 135.652 13.4707C135.821 13.3021 135.905 13.0674 135.905 12.7666H137.156ZM146.084 15.6035V23H144.423V16.9434H142.331L142.194 19.5205C142.108 20.7601 141.868 21.651 141.477 22.1934C141.089 22.7311 140.494 23 139.692 23H139.18L139.173 21.6191L139.515 21.585C139.879 21.5348 140.144 21.3138 140.308 20.9219C140.476 20.5254 140.583 19.8053 140.629 18.7617L140.766 15.6035H146.084Z" fill="#FAFAFA"/>
</svg>
